<svg version="1" xmlns="http://www.w3.org/2000/svg" width="682.667" height="682.667" viewBox="0 0 512.000000 512.000000"><path d="M147 44.4c-20.2 4.2-33.6 23.4-37.5 53.5-.8 6-.9 29.8-.2 35.1.3 1.9.8 6.5 1.2 10.1.4 3.6 1.9 12.4 3.4 19.6l2.7 13-10.1 3.3c-71.3 23.1-104.4 61.2-84.9 97.7 12.2 23.1 45 44.9 87.7 58.3 3.7 1.2 6.7 2.6 6.7 3.1s-1.1 6.5-2.4 13.2c-2.4 12.1-3 15.5-4.4 29.2-1.5 14.3-.3 34.9 2.8 47.1 2.3 9 8.7 22.5 12.8 26.9 15.8 17.1 39.9 19 70.2 5.7 14.8-6.6 37-20.9 49-31.8 1.9-1.8 5.5-5 8-7.2l4.4-4 8.1 7.2c22.7 20.6 45.2 34.6 65.1 40.9 9.9 3.1 14.9 3.9 23.9 3.8 22.2-.2 37.4-13.5 44.8-39.1 3.4-11.7 3.8-15 4.2-34.5.4-17.8-.8-30.4-4.5-48.4-1.1-5.2-2-9.8-2-10.2 0-.4 3.7-2 8.3-3.4 24.5-8.1 52.8-22.7 65.3-33.8 1.6-1.4 3.8-3.4 5-4.4 8.7-7.7 17-20.8 19.5-30.8 1.4-5.5.7-16.4-1.4-22.3-3.7-10.6-13.4-22.5-26.7-32.7-13.9-10.7-40.2-23.6-61.5-30.2-4.4-1.4-8.4-2.9-8.8-3.3-.4-.4.3-6.3 1.7-13.1s2.8-15.3 3.2-18.9c.3-3.6.8-7.9 1-9.5.6-5.2.6-27.8 0-32.5-3.2-23.3-7.7-35.3-17-45.7-8.9-9.9-19.3-13.9-34-13-11.2.7-14.1 1.2-23 4.4-20 7.1-44.3 22.7-65.6 42.2-6 5.5-7.3 6-9.2 3.3-2-2.8-19.4-17.1-28.3-23.3-29.3-20.5-57.2-29.7-77.5-25.5zm216.4 21.1c8.6 4.1 15 17.2 17.4 36 .9 7 .8 31.4-.1 37-.3 1.6-1.1 6.6-1.7 11-2.1 14.9-3.9 21.4-5.8 21-5.9-1.2-23.4-4.5-26.7-5-2.3-.3-5-.7-6-.9-1.1-.2-4.5-.7-7.5-1.1-3-.3-6.6-.8-8-1-1.4-.2-5.2-.7-8.5-1-3.3-.3-6-.7-6.1-.8-2.8-5.1-28.2-37.3-36.1-45.8l-4.2-4.5 7.1-6.5c33.5-30.4 69.3-46.4 86.2-38.4zm-190.9.7c8.9 2.4 24.6 10.1 35.5 17.3 9.5 6.4 24.7 18.5 29.9 23.9 3.4 3.5 3.5 3.6 1.5 5.4-2.5 2.4-12.6 13.8-15.5 17.7-1.3 1.6-2.6 3.2-3 3.5-.3.3-5 6.3-10.3 13.5-5.4 7.1-9.9 13.1-10 13.2-.1.1-2.4.4-5.1.7-8.6.8-30.6 3.8-38 5.2-6.1 1.1-18.1 3.5-19.8 4-1 .3-1.6.2-1.5-.3.1-.4-.6-4.2-1.5-8.3-.9-4.1-2-9.3-2.3-11.5-.3-2.2-.7-4.2-.9-4.5-1-1.6-2-18.5-1.9-31.5.1-17 1.8-26.4 6.3-36 3.3-7.1 5.9-9.9 11.6-12.6 5.1-2.4 15.3-2.3 25 .3zm101.8 80.6c4.5 5.6 8.3 10.6 8.5 11 .1.4-12.1.8-27.2.8-24.4 0-27.4-.2-26.6-1.6.7-1.2 11.1-13.8 24.2-29.2l2.3-2.7 5.3 5.7c2.9 3.1 9 10.3 13.5 16zm23.4 33.7c2.1.7 4.8 4.4 14.1 19.5 7.9 12.7 16.6 27.9 23.7 41.4l7.6 14.5-4.7 9.3c-10.5 20.9-35.1 62.7-38.6 65.5-.7.6-5.6 1.4-10.8 1.7-9.4.7-55.8.8-65.5.2-2.7-.2-6.4-.4-8.2-.5-2.8-.1-3.8-1-9.6-9.9-6.9-10.5-18.7-29.9-18.7-30.8 0-.3-.8-1.8-1.9-3.2-1-1.5-5.3-9.3-9.4-17.4l-7.6-14.6 6.6-12.9c8.2-16 19.4-35.3 29.1-50.3 4.1-6.3 7.6-11.7 7.9-12 1.1-1.2 17.2-1.7 49.3-1.4 19 .1 35.5.5 36.7.9zM185 183.9c0 .4-1.5 2.9-3.3 5.6-3.1 4.6-19.6 33.4-22.9 39.8l-1.4 2.8-3.2-8c-5.3-13-12.1-33-11.4-33.5.4-.2 2.5-.7 4.7-1.1 2.2-.4 4.9-1 6-1.2 6.7-1.4 16.5-3 23-3.9 2.8-.3 5.1-.7 5.3-.8.5-.5 3.2-.2 3.2.3zm150.5.6c2.2.3 5.1.8 6.5 1 1.4.3 4.1.7 6 1 7.2 1.1 19.5 3.8 20.3 4.5 1.1 1-12.9 40-14.4 40-.3 0-3-4.4-5.9-9.8-3-5.3-7.1-12.5-9.2-16-2.1-3.4-3.8-6.4-3.8-6.7 0-.2-2-3.6-4.5-7.4-2.5-3.8-4.5-7.2-4.5-7.6 0-.4 1.2-.4 2.8-.1 1.5.3 4.5.8 6.7 1.1zm-209.4 23c5.1 14.7 8.9 24.5 14.4 37 5.4 12.1 5.4 10.7-.7 25.1-5.1 11.7-12.2 30.8-16 42.4-.8 2.5-2.2 4.6-3.1 4.8-2.2.4-27.4-9.1-38.2-14.5-27.3-13.6-45.5-31.9-45.8-46-.3-14.4 16.9-31.8 45.2-45.5 11-5.4 36.6-14.9 39-14.5.9.1 3 4.5 5.2 11.2zm276.4-7.3c4.4 1.6 8.9 3.2 10 3.5 1.1.3 7.6 3.2 14.4 6.4 27.2 12.9 44.5 28.3 47.5 42.6 2.8 12.8-13.7 31.6-40.9 46.3-13.6 7.3-42 18-43.4 16.4-.4-.5-1.5-3.4-2.5-6.4-3.5-10.3-12.3-32.5-17.1-42.8l-4.7-10.3 4-9.2c5.4-12.3 12.4-30.1 16.3-41.4 3.6-10.7 2.2-10.2 16.4-5.1zM363 301.5c8.2 21.5 8.1 20.1 1.7 21.5-5.8 1.3-35.5 6-37.6 6-1.1 0-1.1-.4.1-2.3 2.2-3.2 18.8-32 23.3-40.1l3.8-6.9 1.4 3.4c.8 1.9 4.1 10.1 7.3 18.4zm-197.9-7c4 7.1 10.1 17.7 13.6 23.4 6.5 10.6 7.2 12.3 5.1 11.6-.7-.2-3.5-.6-6.3-.9-2.7-.3-6.1-.8-7.5-1-1.4-.3-5.7-1-9.7-1.6-3.9-.6-7.7-1.3-8.5-1.4-.7-.2-3.2-.7-5.5-1.1-2.4-.4-4.3-.9-4.3-1 0-.9 5.5-16.7 8.8-25.5 5.9-15.5 6.2-16.3 6.6-15.9.2.2 3.7 6.2 7.7 13.4zm212.3 53.7c5.5 24.9 6.5 47.5 3.1 69.3-.6 4.4-4.4 15.4-6.3 18.4-2.5 4.1-7.4 9.1-10.5 10.7-6.7 3.6-20.8 2.2-34.5-3.3-14.6-5.8-36-20.1-51.6-34.5l-6.9-6.3 8.3-9.5c4.5-5.2 12.8-15.6 18.4-23.1 5.5-7.5 11-14.8 12.1-16.2 1.8-2.3 2.9-2.7 10-3.2 4.4-.3 8.9-.8 10-1 1.1-.2 4.2-.7 6.9-1 8.7-1 38.4-6.6 39.2-7.4.1 0 .9 3.2 1.8 7.1zm-230-3.6c2.2.3 4.3.7 4.6.9.3.2 3.3.7 6.5 1 3.3.4 6.2.9 6.5 1 .3.2 3.3.6 6.5 1 3.3.3 6.7.8 7.5 1 .8.2 5.3.7 10 1.1 4.7.4 9.2.8 10 .9.8.1 5.7 5.8 10.9 12.6s14.6 18.2 20.8 25.4l11.2 13-6.2 5.8c-8.4 7.9-25 20.4-34.2 25.6-27.1 15.6-49.2 18.9-59.4 8.9-5.3-5.2-10.1-16.4-11.9-27.8-1.4-9.3-.5-46.2 1.3-49 .2-.3.6-2.6 1-5 .8-5.5 3.3-16.9 4-18 .3-.5 1.9-.4 3.7 0 1.7.5 4.9 1.2 7.2 1.6zM282.3 356c-1.6 2.5-12.2 16-13.2 17-.4.3-2.3 2.5-4.3 5s-4.8 5.7-6.1 7.2l-2.4 2.8-5.4-6.2c-5.2-6-22.9-27.6-22.9-28.1 0-.1 12.6-.2 28-.2h27.9l-1.6 2.5z"/><path d="M242.1 214.9c-18.1 6.8-29.2 22.2-29.2 40.6 0 28.7 27.6 49.2 55.3 41.1 17.5-5.2 30.2-22.5 30-41.1-.2-17-9.2-31.1-24.7-38.6-5.8-2.8-8-3.3-16.4-3.6-7.8-.3-10.6 0-15 1.6z"/></svg>